<?xml version="1.0" encoding="UTF-8" standalone="no"?>
<!DOCTYPE svg PUBLIC "-//W3C//DTD SVG 1.1//EN" "http://www.w3.org/Graphics/SVG/1.1/DTD/svg11.dtd">
<svg width="100%" height="100%" viewBox="0 0 35 35" version="1.1" xmlns="http://www.w3.org/2000/svg" xmlns:xlink="http://www.w3.org/1999/xlink" xml:space="preserve" xmlns:serif="http://www.serif.com/" style="fill-rule:evenodd;clip-rule:evenodd;stroke-linejoin:round;stroke-miterlimit:2;">
    <path d="M17.498,0L0,17.498L17.498,34.996L34.996,17.498L17.498,0ZM3.57,17.498L17.498,3.57L31.426,17.498L17.498,31.426L3.57,17.498Z" style="fill:white;fill-rule:nonzero;"/>
    <g transform="matrix(1,0,0,1,18.1613,17.6813)">
        <g transform="matrix(1,0,0,1,-8.5,-11.5)">
            <path d="M8.498,0.962C4.428,0.962 0.725,5.985 0.725,11.498C0.725,17.012 4.428,22.034 8.498,22.034C12.568,22.034 16.271,17.012 16.271,11.498C16.271,5.985 12.568,0.962 8.498,0.962ZM3.255,11.498C3.255,9.076 4.191,6.684 5.51,5.152C5.385,5.706 5.319,6.276 5.319,6.858C5.319,8.947 6.134,10.911 7.607,12.389C9.538,14.319 9.663,17.378 7.986,19.454C5.523,18.993 3.255,15.281 3.255,11.498ZM11.482,17.852C12.047,15.322 11.357,12.568 9.393,10.604C7.462,8.673 7.337,5.614 9.014,3.538C11.473,4.004 13.745,7.716 13.745,11.498C13.745,13.928 12.805,16.325 11.482,17.852Z" style="fill:white;fill-rule:nonzero;"/>
        </g>
    </g>
</svg>
