<svg width="37" height="12" viewBox="0 0 37 12" fill="none" xmlns="http://www.w3.org/2000/svg">
<path d="M5.52344 11C5.45052 10.8542 5.39128 10.5944 5.3457 10.2207C4.75781 10.8314 4.05599 11.1367 3.24023 11.1367C2.51107 11.1367 1.91178 10.9316 1.44238 10.5215C0.977539 10.1068 0.745117 9.58268 0.745117 8.94922C0.745117 8.17904 1.03678 7.58203 1.62012 7.1582C2.20801 6.72982 3.03288 6.51562 4.09473 6.51562H5.3252V5.93457C5.3252 5.49251 5.19303 5.1416 4.92871 4.88184C4.66439 4.61751 4.27474 4.48535 3.75977 4.48535C3.30859 4.48535 2.93034 4.59928 2.625 4.82715C2.31966 5.05501 2.16699 5.33073 2.16699 5.6543H0.895508C0.895508 5.28516 1.02539 4.92969 1.28516 4.58789C1.54948 4.24154 1.90495 3.9681 2.35156 3.76758C2.80273 3.56706 3.2972 3.4668 3.83496 3.4668C4.68717 3.4668 5.35482 3.68099 5.83789 4.10938C6.32096 4.5332 6.57161 5.11882 6.58984 5.86621V9.27051C6.58984 9.94954 6.67643 10.4896 6.84961 10.8906V11H5.52344ZM3.4248 10.0361C3.82129 10.0361 4.19727 9.93359 4.55273 9.72852C4.9082 9.52344 5.16569 9.25684 5.3252 8.92871V7.41113H4.33398C2.78451 7.41113 2.00977 7.86458 2.00977 8.77148C2.00977 9.16797 2.14193 9.47786 2.40625 9.70117C2.67057 9.92448 3.01009 10.0361 3.4248 10.0361ZM11.5391 10.1045C11.9902 10.1045 12.3844 9.96777 12.7217 9.69434C13.0589 9.4209 13.2458 9.0791 13.2822 8.66895H14.4785C14.4557 9.09277 14.3099 9.49609 14.041 9.87891C13.7721 10.2617 13.4121 10.5671 12.9609 10.7949C12.5143 11.0228 12.0404 11.1367 11.5391 11.1367C10.5319 11.1367 9.72982 10.8018 9.13281 10.1318C8.54036 9.45736 8.24414 8.53678 8.24414 7.37012V7.1582C8.24414 6.43815 8.3763 5.79785 8.64062 5.2373C8.90495 4.67676 9.2832 4.24154 9.77539 3.93164C10.2721 3.62174 10.8577 3.4668 11.5322 3.4668C12.3617 3.4668 13.0498 3.71517 13.5967 4.21191C14.1481 4.70866 14.4421 5.35352 14.4785 6.14648H13.2822C13.2458 5.66797 13.0635 5.27604 12.7354 4.9707C12.4118 4.66081 12.0107 4.50586 11.5322 4.50586C10.8896 4.50586 10.3906 4.73828 10.0352 5.20312C9.68424 5.66341 9.50879 6.33105 9.50879 7.20605V7.44531C9.50879 8.29753 9.68424 8.95378 10.0352 9.41406C10.3861 9.87435 10.8874 10.1045 11.5391 10.1045ZM17.6162 1.8125V3.60352H18.9971V4.58105H17.6162V9.16797C17.6162 9.46419 17.6777 9.6875 17.8008 9.83789C17.9238 9.98372 18.1335 10.0566 18.4297 10.0566C18.5755 10.0566 18.776 10.0293 19.0312 9.97461V11C18.6986 11.0911 18.375 11.1367 18.0605 11.1367C17.4954 11.1367 17.0693 10.9658 16.7822 10.624C16.4951 10.2822 16.3516 9.79688 16.3516 9.16797V4.58105H15.0049V3.60352H16.3516V1.8125H17.6162ZM21.8545 11H20.5898V3.60352H21.8545V11ZM20.4873 1.6416C20.4873 1.43652 20.5488 1.26335 20.6719 1.12207C20.7995 0.980794 20.9863 0.910156 21.2324 0.910156C21.4785 0.910156 21.6654 0.980794 21.793 1.12207C21.9206 1.26335 21.9844 1.43652 21.9844 1.6416C21.9844 1.84668 21.9206 2.01758 21.793 2.1543C21.6654 2.29102 21.4785 2.35938 21.2324 2.35938C20.9863 2.35938 20.7995 2.29102 20.6719 2.1543C20.5488 2.01758 20.4873 1.84668 20.4873 1.6416ZM26.3252 9.28418L28.1572 3.60352H29.4492L26.7969 11H25.833L23.1533 3.60352H24.4453L26.3252 9.28418ZM33.6396 11.1367C32.637 11.1367 31.8213 10.8086 31.1924 10.1523C30.5635 9.49154 30.249 8.6097 30.249 7.50684V7.27441C30.249 6.54069 30.388 5.88672 30.666 5.3125C30.9486 4.73372 31.3405 4.28255 31.8418 3.95898C32.3477 3.63086 32.8945 3.4668 33.4824 3.4668C34.444 3.4668 35.1914 3.78353 35.7246 4.41699C36.2578 5.05046 36.5244 5.95736 36.5244 7.1377V7.66406H31.5137C31.5319 8.39323 31.7438 8.9834 32.1494 9.43457C32.5596 9.88118 33.0791 10.1045 33.708 10.1045C34.1546 10.1045 34.5329 10.0133 34.8428 9.83105C35.1527 9.64876 35.4238 9.40723 35.6562 9.10645L36.4287 9.70801C35.8089 10.6605 34.8792 11.1367 33.6396 11.1367ZM33.4824 4.50586C32.972 4.50586 32.5436 4.69271 32.1973 5.06641C31.8509 5.43555 31.6367 5.95508 31.5547 6.625H35.2598V6.5293C35.2233 5.88672 35.0501 5.38997 34.7402 5.03906C34.4303 4.68359 34.0111 4.50586 33.4824 4.50586Z" fill="black"/>
</svg>
