<svg width="272" height="47" viewBox="0 0 272 47" fill="none" xmlns="http://www.w3.org/2000/svg">
<path d="M32.5059 27.2568L33.9277 21.6035H35.1924L33.0391 29H32.0137L30.2158 23.3945L28.4658 29H27.4404L25.2939 21.6035H26.5518L28.0078 27.1406L29.7305 21.6035H30.749L32.5059 27.2568ZM37.8584 29H36.5938V21.6035H37.8584V29ZM36.4912 19.6416C36.4912 19.4365 36.5527 19.2633 36.6758 19.1221C36.8034 18.9808 36.9902 18.9102 37.2363 18.9102C37.4824 18.9102 37.6693 18.9808 37.7969 19.1221C37.9245 19.2633 37.9883 19.4365 37.9883 19.6416C37.9883 19.8467 37.9245 20.0176 37.7969 20.1543C37.6693 20.291 37.4824 20.3594 37.2363 20.3594C36.9902 20.3594 36.8034 20.291 36.6758 20.1543C36.5527 20.0176 36.4912 19.8467 36.4912 19.6416ZM42.958 29.1367C41.9554 29.1367 41.1396 28.8086 40.5107 28.1523C39.8818 27.4915 39.5674 26.6097 39.5674 25.5068V25.2744C39.5674 24.5407 39.7064 23.8867 39.9844 23.3125C40.2669 22.7337 40.6589 22.2826 41.1602 21.959C41.666 21.6309 42.2129 21.4668 42.8008 21.4668C43.7624 21.4668 44.5098 21.7835 45.043 22.417C45.5762 23.0505 45.8428 23.9574 45.8428 25.1377V25.6641H40.832C40.8503 26.3932 41.0622 26.9834 41.4678 27.4346C41.8779 27.8812 42.3975 28.1045 43.0264 28.1045C43.473 28.1045 43.8512 28.0133 44.1611 27.8311C44.471 27.6488 44.7422 27.4072 44.9746 27.1064L45.7471 27.708C45.1273 28.6605 44.1976 29.1367 42.958 29.1367ZM42.8008 22.5059C42.2904 22.5059 41.862 22.6927 41.5156 23.0664C41.1693 23.4355 40.9551 23.9551 40.873 24.625H44.5781V24.5293C44.5417 23.8867 44.3685 23.39 44.0586 23.0391C43.7487 22.6836 43.3294 22.5059 42.8008 22.5059ZM53.2256 27.2842L55.0576 21.6035H56.3496L53.6973 29H52.7334L50.0537 21.6035H51.3457L53.2256 27.2842ZM58.9404 29H57.6758V21.6035H58.9404V29ZM57.5732 19.6416C57.5732 19.4365 57.6348 19.2633 57.7578 19.1221C57.8854 18.9808 58.0723 18.9102 58.3184 18.9102C58.5645 18.9102 58.7513 18.9808 58.8789 19.1221C59.0065 19.2633 59.0703 19.4365 59.0703 19.6416C59.0703 19.8467 59.0065 20.0176 58.8789 20.1543C58.7513 20.291 58.5645 20.3594 58.3184 20.3594C58.0723 20.3594 57.8854 20.291 57.7578 20.1543C57.6348 20.0176 57.5732 19.8467 57.5732 19.6416ZM64.04 29.1367C63.0374 29.1367 62.2217 28.8086 61.5928 28.1523C60.9639 27.4915 60.6494 26.6097 60.6494 25.5068V25.2744C60.6494 24.5407 60.7884 23.8867 61.0664 23.3125C61.349 22.7337 61.7409 22.2826 62.2422 21.959C62.748 21.6309 63.2949 21.4668 63.8828 21.4668C64.8444 21.4668 65.5918 21.7835 66.125 22.417C66.6582 23.0505 66.9248 23.9574 66.9248 25.1377V25.6641H61.9141C61.9323 26.3932 62.1442 26.9834 62.5498 27.4346C62.96 27.8812 63.4795 28.1045 64.1084 28.1045C64.555 28.1045 64.9333 28.0133 65.2432 27.8311C65.5531 27.6488 65.8242 27.4072 66.0566 27.1064L66.8291 27.708C66.2093 28.6605 65.2796 29.1367 64.04 29.1367ZM63.8828 22.5059C63.3724 22.5059 62.944 22.6927 62.5977 23.0664C62.2513 23.4355 62.0371 23.9551 61.9551 24.625H65.6602V24.5293C65.6237 23.8867 65.4505 23.39 65.1406 23.0391C64.8307 22.6836 64.4115 22.5059 63.8828 22.5059ZM69.7686 29H68.5039V18.5H69.7686V29ZM77.999 24.3721L76.7822 25.6367V29H75.4697V19.0469H76.7822V23.9688L81.2051 19.0469H82.791L78.874 23.4424L83.0986 29H81.5264L77.999 24.3721ZM88.6152 29C88.5423 28.8542 88.4831 28.5944 88.4375 28.2207C87.8496 28.8314 87.1478 29.1367 86.332 29.1367C85.6029 29.1367 85.0036 28.9316 84.5342 28.5215C84.0693 28.1068 83.8369 27.5827 83.8369 26.9492C83.8369 26.179 84.1286 25.582 84.7119 25.1582C85.2998 24.7298 86.1247 24.5156 87.1865 24.5156H88.417V23.9346C88.417 23.4925 88.2848 23.1416 88.0205 22.8818C87.7562 22.6175 87.3665 22.4854 86.8516 22.4854C86.4004 22.4854 86.0221 22.5993 85.7168 22.8271C85.4115 23.055 85.2588 23.3307 85.2588 23.6543H83.9873C83.9873 23.2852 84.1172 22.9297 84.377 22.5879C84.6413 22.2415 84.9967 21.9681 85.4434 21.7676C85.8945 21.5671 86.389 21.4668 86.9268 21.4668C87.779 21.4668 88.4466 21.681 88.9297 22.1094C89.4128 22.5332 89.6634 23.1188 89.6816 23.8662V27.2705C89.6816 27.9495 89.7682 28.4896 89.9414 28.8906V29H88.6152ZM86.5166 28.0361C86.9131 28.0361 87.2891 27.9336 87.6445 27.7285C88 27.5234 88.2575 27.2568 88.417 26.9287V25.4111H87.4258C85.8763 25.4111 85.1016 25.8646 85.1016 26.7715C85.1016 27.168 85.2337 27.4779 85.498 27.7012C85.7624 27.9245 86.1019 28.0361 86.5166 28.0361ZM92.2861 29V22.5811H91.1172V21.6035H92.2861V20.8447C92.2861 20.0518 92.498 19.4388 92.9219 19.0059C93.3457 18.5729 93.945 18.3564 94.7197 18.3564C95.0114 18.3564 95.3008 18.3952 95.5879 18.4727L95.5195 19.498C95.3053 19.457 95.0775 19.4365 94.8359 19.4365C94.4258 19.4365 94.109 19.5573 93.8857 19.7988C93.6624 20.0358 93.5508 20.3776 93.5508 20.8242V21.6035H95.1299V22.5811H93.5508V29H92.2861ZM97.1533 29V22.5811H95.9844V21.6035H97.1533V20.8447C97.1533 20.0518 97.3652 19.4388 97.7891 19.0059C98.2129 18.5729 98.8122 18.3564 99.5869 18.3564C99.8786 18.3564 100.168 18.3952 100.455 18.4727L100.387 19.498C100.173 19.457 99.9447 19.4365 99.7031 19.4365C99.293 19.4365 98.9762 19.5573 98.7529 19.7988C98.5296 20.0358 98.418 20.3776 98.418 20.8242V21.6035H99.9971V22.5811H98.418V29H97.1533ZM104.304 29.1367C103.301 29.1367 102.485 28.8086 101.856 28.1523C101.228 27.4915 100.913 26.6097 100.913 25.5068V25.2744C100.913 24.5407 101.052 23.8867 101.33 23.3125C101.613 22.7337 102.005 22.2826 102.506 21.959C103.012 21.6309 103.559 21.4668 104.146 21.4668C105.108 21.4668 105.855 21.7835 106.389 22.417C106.922 23.0505 107.188 23.9574 107.188 25.1377V25.6641H102.178C102.196 26.3932 102.408 26.9834 102.813 27.4346C103.224 27.8812 103.743 28.1045 104.372 28.1045C104.819 28.1045 105.197 28.0133 105.507 27.8311C105.817 27.6488 106.088 27.4072 106.32 27.1064L107.093 27.708C106.473 28.6605 105.543 29.1367 104.304 29.1367ZM104.146 22.5059C103.636 22.5059 103.208 22.6927 102.861 23.0664C102.515 23.4355 102.301 23.9551 102.219 24.625H105.924V24.5293C105.887 23.8867 105.714 23.39 105.404 23.0391C105.094 22.6836 104.675 22.5059 104.146 22.5059ZM111.728 29.1367C110.725 29.1367 109.909 28.8086 109.28 28.1523C108.651 27.4915 108.337 26.6097 108.337 25.5068V25.2744C108.337 24.5407 108.476 23.8867 108.754 23.3125C109.036 22.7337 109.428 22.2826 109.93 21.959C110.436 21.6309 110.982 21.4668 111.57 21.4668C112.532 21.4668 113.279 21.7835 113.812 22.417C114.346 23.0505 114.612 23.9574 114.612 25.1377V25.6641H109.602C109.62 26.3932 109.832 26.9834 110.237 27.4346C110.647 27.8812 111.167 28.1045 111.796 28.1045C112.243 28.1045 112.621 28.0133 112.931 27.8311C113.241 27.6488 113.512 27.4072 113.744 27.1064L114.517 27.708C113.897 28.6605 112.967 29.1367 111.728 29.1367ZM111.57 22.5059C111.06 22.5059 110.632 22.6927 110.285 23.0664C109.939 23.4355 109.725 23.9551 109.643 24.625H113.348V24.5293C113.311 23.8867 113.138 23.39 112.828 23.0391C112.518 22.6836 112.099 22.5059 111.57 22.5059ZM125.816 25.3838C125.816 26.514 125.557 27.4232 125.037 28.1113C124.518 28.7949 123.82 29.1367 122.945 29.1367C122.011 29.1367 121.289 28.8063 120.778 28.1455L120.717 29H119.555V18.5H120.819V22.417C121.33 21.7835 122.034 21.4668 122.932 21.4668C123.829 21.4668 124.534 21.8063 125.044 22.4854C125.559 23.1644 125.816 24.0941 125.816 25.2744V25.3838ZM124.552 25.2402C124.552 24.3789 124.385 23.7135 124.053 23.2441C123.72 22.7747 123.242 22.54 122.617 22.54C121.783 22.54 121.184 22.9274 120.819 23.7021V26.9014C121.207 27.6761 121.811 28.0635 122.631 28.0635C123.237 28.0635 123.709 27.8288 124.046 27.3594C124.383 26.89 124.552 26.1836 124.552 25.2402ZM130.991 22.7383C130.8 22.7064 130.592 22.6904 130.369 22.6904C129.54 22.6904 128.977 23.0436 128.681 23.75V29H127.416V21.6035H128.646L128.667 22.458C129.082 21.7972 129.67 21.4668 130.431 21.4668C130.677 21.4668 130.864 21.4987 130.991 21.5625V22.7383ZM136.453 29C136.38 28.8542 136.321 28.5944 136.275 28.2207C135.688 28.8314 134.986 29.1367 134.17 29.1367C133.441 29.1367 132.841 28.9316 132.372 28.5215C131.907 28.1068 131.675 27.5827 131.675 26.9492C131.675 26.179 131.966 25.582 132.55 25.1582C133.138 24.7298 133.963 24.5156 135.024 24.5156H136.255V23.9346C136.255 23.4925 136.123 23.1416 135.858 22.8818C135.594 22.6175 135.204 22.4854 134.689 22.4854C134.238 22.4854 133.86 22.5993 133.555 22.8271C133.249 23.055 133.097 23.3307 133.097 23.6543H131.825C131.825 23.2852 131.955 22.9297 132.215 22.5879C132.479 22.2415 132.835 21.9681 133.281 21.7676C133.732 21.5671 134.227 21.4668 134.765 21.4668C135.617 21.4668 136.285 21.681 136.768 22.1094C137.251 22.5332 137.501 23.1188 137.52 23.8662V27.2705C137.52 27.9495 137.606 28.4896 137.779 28.8906V29H136.453ZM134.354 28.0361C134.751 28.0361 135.127 27.9336 135.482 27.7285C135.838 27.5234 136.095 27.2568 136.255 26.9287V25.4111H135.264C133.714 25.4111 132.939 25.8646 132.939 26.7715C132.939 27.168 133.072 27.4779 133.336 27.7012C133.6 27.9245 133.94 28.0361 134.354 28.0361ZM144.068 28.2686C143.576 28.8473 142.854 29.1367 141.901 29.1367C141.113 29.1367 140.511 28.9089 140.097 28.4531C139.687 27.9928 139.479 27.3138 139.475 26.416V21.6035H140.739V26.3818C140.739 27.5029 141.195 28.0635 142.106 28.0635C143.073 28.0635 143.715 27.7035 144.034 26.9834V21.6035H145.299V29H144.096L144.068 28.2686ZM150.193 28.1045C150.645 28.1045 151.039 27.9678 151.376 27.6943C151.713 27.4209 151.9 27.0791 151.937 26.6689H153.133C153.11 27.0928 152.964 27.4961 152.695 27.8789C152.426 28.2617 152.066 28.5671 151.615 28.7949C151.169 29.0228 150.695 29.1367 150.193 29.1367C149.186 29.1367 148.384 28.8018 147.787 28.1318C147.195 27.4574 146.898 26.5368 146.898 25.3701V25.1582C146.898 24.4382 147.031 23.7979 147.295 23.2373C147.559 22.6768 147.938 22.2415 148.43 21.9316C148.926 21.6217 149.512 21.4668 150.187 21.4668C151.016 21.4668 151.704 21.7152 152.251 22.2119C152.802 22.7087 153.096 23.3535 153.133 24.1465H151.937C151.9 23.668 151.718 23.276 151.39 22.9707C151.066 22.6608 150.665 22.5059 150.187 22.5059C149.544 22.5059 149.045 22.7383 148.689 23.2031C148.339 23.6634 148.163 24.3311 148.163 25.2061V25.4453C148.163 26.2975 148.339 26.9538 148.689 27.4141C149.04 27.8743 149.542 28.1045 150.193 28.1045ZM155.819 22.499C156.38 21.8109 157.109 21.4668 158.007 21.4668C159.57 21.4668 160.358 22.3486 160.372 24.1123V29H159.107V24.1055C159.103 23.5723 158.98 23.1781 158.738 22.9229C158.501 22.6676 158.13 22.54 157.624 22.54C157.214 22.54 156.854 22.6494 156.544 22.8682C156.234 23.0869 155.993 23.374 155.819 23.7295V29H154.555V18.5H155.819V22.499ZM166.572 27.0381C166.572 26.6963 166.442 26.432 166.183 26.2451C165.927 26.0537 165.479 25.8896 164.836 25.7529C164.198 25.6162 163.69 25.4521 163.312 25.2607C162.938 25.0693 162.66 24.8415 162.478 24.5771C162.3 24.3128 162.211 23.9984 162.211 23.6338C162.211 23.0277 162.466 22.515 162.977 22.0957C163.492 21.6764 164.148 21.4668 164.945 21.4668C165.784 21.4668 166.463 21.6833 166.982 22.1162C167.507 22.5492 167.769 23.1029 167.769 23.7773H166.497C166.497 23.431 166.349 23.1325 166.053 22.8818C165.761 22.6312 165.392 22.5059 164.945 22.5059C164.485 22.5059 164.125 22.6061 163.865 22.8066C163.605 23.0072 163.476 23.2692 163.476 23.5928C163.476 23.8981 163.596 24.1283 163.838 24.2832C164.079 24.4382 164.515 24.5863 165.144 24.7275C165.777 24.8688 166.29 25.0374 166.682 25.2334C167.074 25.4294 167.363 25.6663 167.55 25.9443C167.741 26.2178 167.837 26.5527 167.837 26.9492C167.837 27.61 167.573 28.141 167.044 28.542C166.515 28.9385 165.829 29.1367 164.986 29.1367C164.394 29.1367 163.87 29.0319 163.414 28.8223C162.958 28.6126 162.601 28.321 162.341 27.9473C162.086 27.569 161.958 27.1611 161.958 26.7236H163.223C163.245 27.1475 163.414 27.4847 163.729 27.7354C164.048 27.9814 164.467 28.1045 164.986 28.1045C165.465 28.1045 165.848 28.0088 166.135 27.8174C166.426 27.6214 166.572 27.3617 166.572 27.0381ZM171.2 19.8125V21.6035H172.581V22.5811H171.2V27.168C171.2 27.4642 171.262 27.6875 171.385 27.8379C171.508 27.9837 171.717 28.0566 172.014 28.0566C172.16 28.0566 172.36 28.0293 172.615 27.9746V29C172.283 29.0911 171.959 29.1367 171.645 29.1367C171.079 29.1367 170.653 28.9658 170.366 28.624C170.079 28.2822 169.936 27.7969 169.936 27.168V22.5811H168.589V21.6035H169.936V19.8125H171.2ZM177.229 25.2402C177.229 24.1055 177.498 23.194 178.036 22.5059C178.574 21.8132 179.278 21.4668 180.148 21.4668C181.014 21.4668 181.7 21.763 182.206 22.3555V18.5H183.471V29H182.309L182.247 28.207C181.741 28.8268 181.037 29.1367 180.135 29.1367C179.278 29.1367 178.578 28.7858 178.036 28.084C177.498 27.3822 177.229 26.4661 177.229 25.3359V25.2402ZM178.494 25.3838C178.494 26.2223 178.667 26.8786 179.014 27.3525C179.36 27.8265 179.839 28.0635 180.449 28.0635C181.251 28.0635 181.837 27.7035 182.206 26.9834V23.5859C181.828 22.8887 181.247 22.54 180.463 22.54C179.843 22.54 179.36 22.7793 179.014 23.2578C178.667 23.7363 178.494 24.445 178.494 25.3838ZM190.006 28.2686C189.514 28.8473 188.791 29.1367 187.839 29.1367C187.05 29.1367 186.449 28.9089 186.034 28.4531C185.624 27.9928 185.417 27.3138 185.412 26.416V21.6035H186.677V26.3818C186.677 27.5029 187.132 28.0635 188.044 28.0635C189.01 28.0635 189.653 27.7035 189.972 26.9834V21.6035H191.236V29H190.033L190.006 28.2686ZM194.647 26.1973C194.657 25.6549 194.718 25.2266 194.832 24.9121C194.946 24.5977 195.178 24.249 195.529 23.8662L196.425 22.9434C196.808 22.5104 196.999 22.0456 196.999 21.5488C196.999 21.0703 196.874 20.6966 196.623 20.4277C196.372 20.1543 196.008 20.0176 195.529 20.0176C195.064 20.0176 194.691 20.1406 194.408 20.3867C194.126 20.6328 193.984 20.9632 193.984 21.3779H192.72C192.729 20.6396 192.991 20.0449 193.506 19.5938C194.025 19.138 194.7 18.9102 195.529 18.9102C196.391 18.9102 197.061 19.1426 197.539 19.6074C198.022 20.0677 198.264 20.7012 198.264 21.5078C198.264 22.3053 197.895 23.0915 197.156 23.8662L196.411 24.6045C196.078 24.9736 195.912 25.5046 195.912 26.1973H194.647ZM194.593 28.3643C194.593 28.1592 194.654 27.9883 194.777 27.8516C194.905 27.7103 195.092 27.6396 195.338 27.6396C195.584 27.6396 195.771 27.7103 195.898 27.8516C196.026 27.9883 196.09 28.1592 196.09 28.3643C196.09 28.5693 196.026 28.7402 195.898 28.877C195.771 29.0091 195.584 29.0752 195.338 29.0752C195.092 29.0752 194.905 29.0091 194.777 28.877C194.654 28.7402 194.593 28.5693 194.593 28.3643Z" fill="black"/>
<path d="M1 5C1 2.79086 2.79086 1 5 1H223V46H4.99999C2.79086 46 1 44.2091 1 42V5Z" stroke="#1A1A1A" stroke-width="2"/>
<path d="M225 1H267C269.209 1 271 2.79086 271 5V42C271 44.2091 269.209 46 267 46H225V1Z" fill="#1A1A1A"/>
<path d="M254.755 24.2686L248.297 29.166L247.981 29.166L241.523 24.2686L241.523 21.9111L248.131 26.1943L254.755 21.9111L254.755 24.2686Z" fill="white"/>
<path d="M225 1H267C269.209 1 271 2.79086 271 5V42C271 44.2091 269.209 46 267 46H225V1Z" stroke="#1A1A1A" stroke-width="2"/>
</svg>
