<svg width="203" height="224" viewBox="0 0 203 224" fill="none" xmlns="http://www.w3.org/2000/svg">
<path d="M20 25C20 22.2386 22.2386 20 25 20H178C180.761 20 183 22.2386 183 25V63C183 65.7614 180.761 68 178 68H25C22.2386 68 20 65.7614 20 63V25Z" fill="#1A1A1A"/>
<path d="M72.1465 47.9678H76.4736V49H70.6016V48.0703L74.6826 42.6494H70.6631V41.6035H76.2686V42.499L72.1465 47.9678ZM82.4688 48.2686C81.9766 48.8473 81.2542 49.1367 80.3018 49.1367C79.5133 49.1367 78.9118 48.9089 78.4971 48.4531C78.0869 47.9928 77.8796 47.3138 77.875 46.416V41.6035H79.1396V46.3818C79.1396 47.5029 79.5954 48.0635 80.5068 48.0635C81.473 48.0635 82.1156 47.7035 82.4346 46.9834V41.6035H83.6992V49H82.4961L82.4688 48.2686ZM86.8164 41.6035L86.8506 42.4238C87.3929 41.7858 88.1243 41.4668 89.0449 41.4668C90.0794 41.4668 90.7835 41.8633 91.1572 42.6562C91.4033 42.3008 91.7223 42.0137 92.1143 41.7949C92.5107 41.5762 92.9779 41.4668 93.5156 41.4668C95.138 41.4668 95.9629 42.3258 95.9902 44.0439V49H94.7256V44.1191C94.7256 43.5905 94.6048 43.1963 94.3633 42.9365C94.1217 42.6722 93.7161 42.54 93.1465 42.54C92.6771 42.54 92.2874 42.6813 91.9775 42.9639C91.6676 43.2419 91.4876 43.6178 91.4375 44.0918V49H90.166V44.1533C90.166 43.0778 89.6396 42.54 88.5869 42.54C87.7575 42.54 87.1901 42.8932 86.8848 43.5996V49H85.6201V41.6035H86.8164ZM104.508 44.5635C103.382 44.2399 102.562 43.8434 102.047 43.374C101.536 42.9001 101.281 42.3167 101.281 41.624C101.281 40.8402 101.593 40.193 102.218 39.6826C102.847 39.1676 103.662 38.9102 104.665 38.9102C105.349 38.9102 105.957 39.0423 106.49 39.3066C107.028 39.571 107.443 39.9355 107.734 40.4004C108.031 40.8652 108.179 41.3734 108.179 41.9248H106.859C106.859 41.3232 106.668 40.8516 106.285 40.5098C105.902 40.1634 105.362 39.9902 104.665 39.9902C104.018 39.9902 103.512 40.1338 103.147 40.4209C102.787 40.7035 102.607 41.0977 102.607 41.6035C102.607 42.0091 102.778 42.3532 103.12 42.6357C103.466 42.9137 104.052 43.1689 104.877 43.4014C105.706 43.6338 106.354 43.8913 106.818 44.1738C107.288 44.4518 107.634 44.7777 107.857 45.1514C108.085 45.5251 108.199 45.9648 108.199 46.4707C108.199 47.2773 107.885 47.9245 107.256 48.4121C106.627 48.8952 105.786 49.1367 104.733 49.1367C104.05 49.1367 103.412 49.0068 102.819 48.7471C102.227 48.4827 101.769 48.1227 101.445 47.667C101.126 47.2113 100.967 46.694 100.967 46.1152H102.286C102.286 46.7168 102.507 47.193 102.949 47.5439C103.396 47.8903 103.991 48.0635 104.733 48.0635C105.426 48.0635 105.957 47.9222 106.326 47.6396C106.695 47.3571 106.88 46.972 106.88 46.4844C106.88 45.9967 106.709 45.6208 106.367 45.3564C106.025 45.0876 105.406 44.8232 104.508 44.5635ZM110.954 42.499C111.515 41.8109 112.244 41.4668 113.142 41.4668C114.705 41.4668 115.493 42.3486 115.507 44.1123V49H114.242V44.1055C114.238 43.5723 114.115 43.1781 113.873 42.9229C113.636 42.6676 113.265 42.54 112.759 42.54C112.349 42.54 111.989 42.6494 111.679 42.8682C111.369 43.0869 111.127 43.374 110.954 43.7295V49H109.689V38.5H110.954V42.499ZM117.065 45.2334C117.065 44.5088 117.207 43.8571 117.489 43.2783C117.776 42.6995 118.173 42.2529 118.679 41.9385C119.189 41.624 119.77 41.4668 120.422 41.4668C121.429 41.4668 122.243 41.8154 122.862 42.5127C123.487 43.21 123.799 44.1374 123.799 45.2949V45.3838C123.799 46.1038 123.66 46.751 123.382 47.3252C123.108 47.8949 122.714 48.3392 122.199 48.6582C121.689 48.9772 121.101 49.1367 120.436 49.1367C119.433 49.1367 118.619 48.7881 117.995 48.0908C117.375 47.3936 117.065 46.4707 117.065 45.3223V45.2334ZM118.337 45.3838C118.337 46.2041 118.526 46.8626 118.904 47.3594C119.287 47.8561 119.798 48.1045 120.436 48.1045C121.078 48.1045 121.589 47.8538 121.967 47.3525C122.345 46.8467 122.534 46.1403 122.534 45.2334C122.534 44.4222 122.34 43.766 121.953 43.2646C121.57 42.7588 121.06 42.5059 120.422 42.5059C119.798 42.5059 119.294 42.7542 118.911 43.251C118.528 43.7477 118.337 44.4587 118.337 45.3838ZM131.633 45.3838C131.633 46.5094 131.375 47.4163 130.86 48.1045C130.345 48.7926 129.648 49.1367 128.769 49.1367C127.871 49.1367 127.164 48.8519 126.649 48.2822V51.8438H125.385V41.6035H126.54L126.602 42.4238C127.117 41.7858 127.832 41.4668 128.748 41.4668C129.637 41.4668 130.339 41.8018 130.854 42.4717C131.373 43.1416 131.633 44.0736 131.633 45.2676V45.3838ZM130.368 45.2402C130.368 44.4062 130.19 43.7477 129.835 43.2646C129.479 42.7816 128.992 42.54 128.372 42.54C127.606 42.54 127.032 42.8796 126.649 43.5586V47.0928C127.028 47.7673 127.606 48.1045 128.386 48.1045C128.992 48.1045 129.473 47.8652 129.828 47.3867C130.188 46.9036 130.368 46.1882 130.368 45.2402Z" fill="white"/>
<path d="M25 22H178V18H25V22ZM181 25V63H185V25H181ZM178 66H25V70H178V66ZM22 63V25H18V63H22ZM25 66C23.3431 66 22 64.6569 22 63H18C18 66.866 21.134 70 25 70V66ZM181 63C181 64.6569 179.657 66 178 66V70C181.866 70 185 66.866 185 63H181ZM178 22C179.657 22 181 23.3431 181 25H185C185 21.134 181.866 18 178 18V22ZM25 18C21.134 18 18 21.134 18 25H22C22 23.3431 23.3431 22 25 22V18Z" fill="#1A1A1A"/>
<g filter="url(#filter0_d)">
<path d="M20 93C20 90.2386 22.2386 88 25 88H178C180.761 88 183 90.2386 183 93V131C183 133.761 180.761 136 178 136H25C22.2386 136 20 133.761 20 131V93Z" fill="#3A3734"/>
<path d="M72.1465 115.968H76.4736V117H70.6016V116.07L74.6826 110.649H70.6631V109.604H76.2686V110.499L72.1465 115.968ZM82.4688 116.269C81.9766 116.847 81.2542 117.137 80.3018 117.137C79.5133 117.137 78.9118 116.909 78.4971 116.453C78.0869 115.993 77.8796 115.314 77.875 114.416V109.604H79.1396V114.382C79.1396 115.503 79.5954 116.063 80.5068 116.063C81.473 116.063 82.1156 115.703 82.4346 114.983V109.604H83.6992V117H82.4961L82.4688 116.269ZM86.8164 109.604L86.8506 110.424C87.3929 109.786 88.1243 109.467 89.0449 109.467C90.0794 109.467 90.7835 109.863 91.1572 110.656C91.4033 110.301 91.7223 110.014 92.1143 109.795C92.5107 109.576 92.9779 109.467 93.5156 109.467C95.138 109.467 95.9629 110.326 95.9902 112.044V117H94.7256V112.119C94.7256 111.59 94.6048 111.196 94.3633 110.937C94.1217 110.672 93.7161 110.54 93.1465 110.54C92.6771 110.54 92.2874 110.681 91.9775 110.964C91.6676 111.242 91.4876 111.618 91.4375 112.092V117H90.166V112.153C90.166 111.078 89.6396 110.54 88.5869 110.54C87.7575 110.54 87.1901 110.893 86.8848 111.6V117H85.6201V109.604H86.8164ZM104.508 112.563C103.382 112.24 102.562 111.843 102.047 111.374C101.536 110.9 101.281 110.317 101.281 109.624C101.281 108.84 101.593 108.193 102.218 107.683C102.847 107.168 103.662 106.91 104.665 106.91C105.349 106.91 105.957 107.042 106.49 107.307C107.028 107.571 107.443 107.936 107.734 108.4C108.031 108.865 108.179 109.373 108.179 109.925H106.859C106.859 109.323 106.668 108.852 106.285 108.51C105.902 108.163 105.362 107.99 104.665 107.99C104.018 107.99 103.512 108.134 103.147 108.421C102.787 108.703 102.607 109.098 102.607 109.604C102.607 110.009 102.778 110.353 103.12 110.636C103.466 110.914 104.052 111.169 104.877 111.401C105.706 111.634 106.354 111.891 106.818 112.174C107.288 112.452 107.634 112.778 107.857 113.151C108.085 113.525 108.199 113.965 108.199 114.471C108.199 115.277 107.885 115.924 107.256 116.412C106.627 116.895 105.786 117.137 104.733 117.137C104.05 117.137 103.412 117.007 102.819 116.747C102.227 116.483 101.769 116.123 101.445 115.667C101.126 115.211 100.967 114.694 100.967 114.115H102.286C102.286 114.717 102.507 115.193 102.949 115.544C103.396 115.89 103.991 116.063 104.733 116.063C105.426 116.063 105.957 115.922 106.326 115.64C106.695 115.357 106.88 114.972 106.88 114.484C106.88 113.997 106.709 113.621 106.367 113.356C106.025 113.088 105.406 112.823 104.508 112.563ZM110.954 110.499C111.515 109.811 112.244 109.467 113.142 109.467C114.705 109.467 115.493 110.349 115.507 112.112V117H114.242V112.105C114.238 111.572 114.115 111.178 113.873 110.923C113.636 110.668 113.265 110.54 112.759 110.54C112.349 110.54 111.989 110.649 111.679 110.868C111.369 111.087 111.127 111.374 110.954 111.729V117H109.689V106.5H110.954V110.499ZM117.065 113.233C117.065 112.509 117.207 111.857 117.489 111.278C117.776 110.7 118.173 110.253 118.679 109.938C119.189 109.624 119.77 109.467 120.422 109.467C121.429 109.467 122.243 109.815 122.862 110.513C123.487 111.21 123.799 112.137 123.799 113.295V113.384C123.799 114.104 123.66 114.751 123.382 115.325C123.108 115.895 122.714 116.339 122.199 116.658C121.689 116.977 121.101 117.137 120.436 117.137C119.433 117.137 118.619 116.788 117.995 116.091C117.375 115.394 117.065 114.471 117.065 113.322V113.233ZM118.337 113.384C118.337 114.204 118.526 114.863 118.904 115.359C119.287 115.856 119.798 116.104 120.436 116.104C121.078 116.104 121.589 115.854 121.967 115.353C122.345 114.847 122.534 114.14 122.534 113.233C122.534 112.422 122.34 111.766 121.953 111.265C121.57 110.759 121.06 110.506 120.422 110.506C119.798 110.506 119.294 110.754 118.911 111.251C118.528 111.748 118.337 112.459 118.337 113.384ZM131.633 113.384C131.633 114.509 131.375 115.416 130.86 116.104C130.345 116.793 129.648 117.137 128.769 117.137C127.871 117.137 127.164 116.852 126.649 116.282V119.844H125.385V109.604H126.54L126.602 110.424C127.117 109.786 127.832 109.467 128.748 109.467C129.637 109.467 130.339 109.802 130.854 110.472C131.373 111.142 131.633 112.074 131.633 113.268V113.384ZM130.368 113.24C130.368 112.406 130.19 111.748 129.835 111.265C129.479 110.782 128.992 110.54 128.372 110.54C127.606 110.54 127.032 110.88 126.649 111.559V115.093C127.028 115.767 127.606 116.104 128.386 116.104C128.992 116.104 129.473 115.865 129.828 115.387C130.188 114.904 130.368 114.188 130.368 113.24Z" fill="white"/>
</g>
<path d="M20 161C20 158.239 22.2386 156 25 156H178C180.761 156 183 158.239 183 161V199C183 201.761 180.761 204 178 204H25C22.2386 204 20 201.761 20 199V161Z" fill="#D7BE9D"/>
<path d="M72.1465 183.968H76.4736V185H70.6016V184.07L74.6826 178.649H70.6631V177.604H76.2686V178.499L72.1465 183.968ZM82.4688 184.269C81.9766 184.847 81.2542 185.137 80.3018 185.137C79.5133 185.137 78.9118 184.909 78.4971 184.453C78.0869 183.993 77.8796 183.314 77.875 182.416V177.604H79.1396V182.382C79.1396 183.503 79.5954 184.063 80.5068 184.063C81.473 184.063 82.1156 183.703 82.4346 182.983V177.604H83.6992V185H82.4961L82.4688 184.269ZM86.8164 177.604L86.8506 178.424C87.3929 177.786 88.1243 177.467 89.0449 177.467C90.0794 177.467 90.7835 177.863 91.1572 178.656C91.4033 178.301 91.7223 178.014 92.1143 177.795C92.5107 177.576 92.9779 177.467 93.5156 177.467C95.138 177.467 95.9629 178.326 95.9902 180.044V185H94.7256V180.119C94.7256 179.59 94.6048 179.196 94.3633 178.937C94.1217 178.672 93.7161 178.54 93.1465 178.54C92.6771 178.54 92.2874 178.681 91.9775 178.964C91.6676 179.242 91.4876 179.618 91.4375 180.092V185H90.166V180.153C90.166 179.078 89.6396 178.54 88.5869 178.54C87.7575 178.54 87.1901 178.893 86.8848 179.6V185H85.6201V177.604H86.8164ZM104.508 180.563C103.382 180.24 102.562 179.843 102.047 179.374C101.536 178.9 101.281 178.317 101.281 177.624C101.281 176.84 101.593 176.193 102.218 175.683C102.847 175.168 103.662 174.91 104.665 174.91C105.349 174.91 105.957 175.042 106.49 175.307C107.028 175.571 107.443 175.936 107.734 176.4C108.031 176.865 108.179 177.373 108.179 177.925H106.859C106.859 177.323 106.668 176.852 106.285 176.51C105.902 176.163 105.362 175.99 104.665 175.99C104.018 175.99 103.512 176.134 103.147 176.421C102.787 176.703 102.607 177.098 102.607 177.604C102.607 178.009 102.778 178.353 103.12 178.636C103.466 178.914 104.052 179.169 104.877 179.401C105.706 179.634 106.354 179.891 106.818 180.174C107.288 180.452 107.634 180.778 107.857 181.151C108.085 181.525 108.199 181.965 108.199 182.471C108.199 183.277 107.885 183.924 107.256 184.412C106.627 184.895 105.786 185.137 104.733 185.137C104.05 185.137 103.412 185.007 102.819 184.747C102.227 184.483 101.769 184.123 101.445 183.667C101.126 183.211 100.967 182.694 100.967 182.115H102.286C102.286 182.717 102.507 183.193 102.949 183.544C103.396 183.89 103.991 184.063 104.733 184.063C105.426 184.063 105.957 183.922 106.326 183.64C106.695 183.357 106.88 182.972 106.88 182.484C106.88 181.997 106.709 181.621 106.367 181.356C106.025 181.088 105.406 180.823 104.508 180.563ZM110.954 178.499C111.515 177.811 112.244 177.467 113.142 177.467C114.705 177.467 115.493 178.349 115.507 180.112V185H114.242V180.105C114.238 179.572 114.115 179.178 113.873 178.923C113.636 178.668 113.265 178.54 112.759 178.54C112.349 178.54 111.989 178.649 111.679 178.868C111.369 179.087 111.127 179.374 110.954 179.729V185H109.689V174.5H110.954V178.499ZM117.065 181.233C117.065 180.509 117.207 179.857 117.489 179.278C117.776 178.7 118.173 178.253 118.679 177.938C119.189 177.624 119.77 177.467 120.422 177.467C121.429 177.467 122.243 177.815 122.862 178.513C123.487 179.21 123.799 180.137 123.799 181.295V181.384C123.799 182.104 123.66 182.751 123.382 183.325C123.108 183.895 122.714 184.339 122.199 184.658C121.689 184.977 121.101 185.137 120.436 185.137C119.433 185.137 118.619 184.788 117.995 184.091C117.375 183.394 117.065 182.471 117.065 181.322V181.233ZM118.337 181.384C118.337 182.204 118.526 182.863 118.904 183.359C119.287 183.856 119.798 184.104 120.436 184.104C121.078 184.104 121.589 183.854 121.967 183.353C122.345 182.847 122.534 182.14 122.534 181.233C122.534 180.422 122.34 179.766 121.953 179.265C121.57 178.759 121.06 178.506 120.422 178.506C119.798 178.506 119.294 178.754 118.911 179.251C118.528 179.748 118.337 180.459 118.337 181.384ZM131.633 181.384C131.633 182.509 131.375 183.416 130.86 184.104C130.345 184.793 129.648 185.137 128.769 185.137C127.871 185.137 127.164 184.852 126.649 184.282V187.844H125.385V177.604H126.54L126.602 178.424C127.117 177.786 127.832 177.467 128.748 177.467C129.637 177.467 130.339 177.802 130.854 178.472C131.373 179.142 131.633 180.074 131.633 181.268V181.384ZM130.368 181.24C130.368 180.406 130.19 179.748 129.835 179.265C129.479 178.782 128.992 178.54 128.372 178.54C127.606 178.54 127.032 178.88 126.649 179.559V183.093C127.028 183.767 127.606 184.104 128.386 184.104C128.992 184.104 129.473 183.865 129.828 183.387C130.188 182.904 130.368 182.188 130.368 181.24Z" fill="white"/>
<rect x="0.5" y="0.5" width="202" height="223" rx="4.5" stroke="#7B61FF" stroke-dasharray="10 5"/>
<defs>
<filter id="filter0_d" x="19" y="87" width="169" height="54" filterUnits="userSpaceOnUse" color-interpolation-filters="sRGB">
<feFlood flood-opacity="0" result="BackgroundImageFix"/>
<feColorMatrix in="SourceAlpha" type="matrix" values="0 0 0 0 0 0 0 0 0 0 0 0 0 0 0 0 0 0 127 0"/>
<feOffset dx="2" dy="2"/>
<feGaussianBlur stdDeviation="1.5"/>
<feColorMatrix type="matrix" values="0 0 0 0 0 0 0 0 0 0 0 0 0 0 0 0 0 0 0.25 0"/>
<feBlend mode="normal" in2="BackgroundImageFix" result="effect1_dropShadow"/>
<feBlend mode="normal" in="SourceGraphic" in2="effect1_dropShadow" result="shape"/>
</filter>
</defs>
</svg>
