<svg width="595" height="110" viewBox="0 0 595 110" fill="none" xmlns="http://www.w3.org/2000/svg">
<path d="M64.2266 64.6172H25.4141V89.0156H71.2578V108H0.734375V5.625H71.3984V24.6797H25.4141V46.2656H64.2266V64.6172ZM105.219 108H81.4531V0H105.219V108ZM156.688 109.406C145.016 109.406 135.57 105.938 128.352 99C121.133 92.0156 117.523 82.9453 117.523 71.7891V69.8203C117.523 62.0391 118.953 55.1719 121.812 49.2188C124.719 43.2656 128.938 38.6719 134.469 35.4375C140 32.1562 146.562 30.5156 154.156 30.5156C164.844 30.5156 173.281 33.8437 179.469 40.5C185.656 47.1094 188.75 56.3438 188.75 68.2031V77.4141H141.641C142.484 81.6797 144.336 85.0312 147.195 87.4688C150.055 89.9062 153.758 91.125 158.305 91.125C165.805 91.125 171.664 88.5 175.883 83.25L186.711 96.0469C183.758 100.125 179.562 103.383 174.125 105.82C168.734 108.211 162.922 109.406 156.688 109.406ZM154.016 48.7969C147.078 48.7969 142.953 53.3906 141.641 62.5781H165.547V60.75C165.641 56.9531 164.68 54.0234 162.664 51.9609C160.648 49.8516 157.766 48.7969 154.016 48.7969ZM220.742 31.9219L221.516 40.8516C226.906 33.9609 234.148 30.5156 243.242 30.5156C252.852 30.5156 259.344 34.3359 262.719 41.9766C267.875 34.3359 275.328 30.5156 285.078 30.5156C300.5 30.5156 308.422 39.8438 308.844 58.5V108H285.078V59.9766C285.078 56.0859 284.422 53.25 283.109 51.4688C281.797 49.6875 279.406 48.7969 275.938 48.7969C271.25 48.7969 267.758 50.8828 265.461 55.0547L265.531 56.0391V108H241.766V60.1172C241.766 56.1328 241.133 53.25 239.867 51.4688C238.602 49.6875 236.188 48.7969 232.625 48.7969C228.078 48.7969 224.609 50.8828 222.219 55.0547V108H198.523V31.9219H220.742ZM359.188 109.406C347.516 109.406 338.07 105.938 330.852 99C323.633 92.0156 320.023 82.9453 320.023 71.7891V69.8203C320.023 62.0391 321.453 55.1719 324.312 49.2188C327.219 43.2656 331.438 38.6719 336.969 35.4375C342.5 32.1562 349.062 30.5156 356.656 30.5156C367.344 30.5156 375.781 33.8437 381.969 40.5C388.156 47.1094 391.25 56.3438 391.25 68.2031V77.4141H344.141C344.984 81.6797 346.836 85.0312 349.695 87.4688C352.555 89.9062 356.258 91.125 360.805 91.125C368.305 91.125 374.164 88.5 378.383 83.25L389.211 96.0469C386.258 100.125 382.062 103.383 376.625 105.82C371.234 108.211 365.422 109.406 359.188 109.406ZM356.516 48.7969C349.578 48.7969 345.453 53.3906 344.141 62.5781H368.047V60.75C368.141 56.9531 367.18 54.0234 365.164 51.9609C363.148 49.8516 360.266 48.7969 356.516 48.7969ZM422.609 31.9219L423.383 40.8516C428.633 33.9609 435.875 30.5156 445.109 30.5156C453.031 30.5156 458.938 32.8828 462.828 37.6172C466.766 42.3516 468.805 49.4766 468.945 58.9922V108H445.18V59.9766C445.18 56.1328 444.406 53.3203 442.859 51.5391C441.312 49.7109 438.5 48.7969 434.422 48.7969C429.781 48.7969 426.336 50.625 424.086 54.2812V108H400.391V31.9219H422.609ZM509.727 13.0078V31.9219H522.242V48.375H509.727V83.1797C509.727 86.0391 510.242 88.0312 511.273 89.1562C512.305 90.2812 514.344 90.8438 517.391 90.8438C519.734 90.8438 521.703 90.7031 523.297 90.4219V107.367C519.031 108.727 514.578 109.406 509.938 109.406C501.781 109.406 495.758 107.484 491.867 103.641C487.977 99.7969 486.031 93.9609 486.031 86.1328V48.375H476.328V31.9219H486.031V13.0078H509.727ZM571.461 86.625C571.461 84.6094 570.406 82.9922 568.297 81.7734C566.188 80.5547 562.18 79.2891 556.273 77.9766C550.367 76.6641 545.492 74.9531 541.648 72.8438C537.805 70.6875 534.875 68.0859 532.859 65.0391C530.844 61.9922 529.836 58.5 529.836 54.5625C529.836 47.5781 532.719 41.8359 538.484 37.3359C544.25 32.7891 551.797 30.5156 561.125 30.5156C571.156 30.5156 579.219 32.7891 585.312 37.3359C591.406 41.8828 594.453 47.8594 594.453 55.2656H570.688C570.688 49.1719 567.477 46.125 561.055 46.125C558.57 46.125 556.484 46.8281 554.797 48.2344C553.109 49.5938 552.266 51.3047 552.266 53.3672C552.266 55.4766 553.297 57.1875 555.359 58.5C557.422 59.8125 560.703 60.8906 565.203 61.7344C569.75 62.5781 573.734 63.5859 577.156 64.7578C588.594 68.6953 594.312 75.75 594.312 85.9219C594.312 92.8594 591.219 98.5078 585.031 102.867C578.891 107.227 570.922 109.406 561.125 109.406C554.609 109.406 548.797 108.234 543.688 105.891C538.578 103.547 534.594 100.359 531.734 96.3281C528.875 92.2969 527.445 88.0547 527.445 83.6016H549.594C549.688 87.1172 550.859 89.6953 553.109 91.3359C555.359 92.9297 558.242 93.7266 561.758 93.7266C564.992 93.7266 567.406 93.0703 569 91.7578C570.641 90.4453 571.461 88.7344 571.461 86.625Z" fill="black"/>
</svg>
