<svg width="215" height="12" viewBox="0 0 215 12" fill="none" xmlns="http://www.w3.org/2000/svg">
<path d="M1.38086 11V4.58105H0.211914V3.60352H1.38086V2.97461C1.38086 2.14974 1.61556 1.50716 2.08496 1.04688C2.55892 0.586589 3.22656 0.356445 4.08789 0.356445C4.59831 0.356445 5.24316 0.495443 6.02246 0.773438L5.81055 1.83984C5.24089 1.61198 4.69857 1.49805 4.18359 1.49805C3.64128 1.49805 3.24935 1.62109 3.00781 1.86719C2.77083 2.10872 2.65234 2.47331 2.65234 2.96094V3.60352H4.16309V4.58105H2.65234V11H1.38086ZM6.65137 11H5.37988V3.60352H6.65137V11ZM10.083 11H8.81836V0.5H10.083V11ZM13.4873 11H12.2227V0.5H13.4873V11ZM23.5566 11C23.4837 10.8542 23.4245 10.5944 23.3789 10.2207C22.791 10.8314 22.0892 11.1367 21.2734 11.1367C20.5443 11.1367 19.945 10.9316 19.4756 10.5215C19.0107 10.1068 18.7783 9.58268 18.7783 8.94922C18.7783 8.17904 19.07 7.58203 19.6533 7.1582C20.2412 6.72982 21.0661 6.51562 22.1279 6.51562H23.3584V5.93457C23.3584 5.49251 23.2262 5.1416 22.9619 4.88184C22.6976 4.61751 22.3079 4.48535 21.793 4.48535C21.3418 4.48535 20.9635 4.59928 20.6582 4.82715C20.3529 5.05501 20.2002 5.33073 20.2002 5.6543H18.9287C18.9287 5.28516 19.0586 4.92969 19.3184 4.58789C19.5827 4.24154 19.9382 3.9681 20.3848 3.76758C20.8359 3.56706 21.3304 3.4668 21.8682 3.4668C22.7204 3.4668 23.388 3.68099 23.8711 4.10938C24.3542 4.5332 24.6048 5.11882 24.623 5.86621V9.27051C24.623 9.94954 24.7096 10.4896 24.8828 10.8906V11H23.5566ZM21.458 10.0361C21.8545 10.0361 22.2305 9.93359 22.5859 9.72852C22.9414 9.52344 23.1989 9.25684 23.3584 8.92871V7.41113H22.3672C20.8177 7.41113 20.043 7.86458 20.043 8.77148C20.043 9.16797 20.1751 9.47786 20.4395 9.70117C20.7038 9.92448 21.0433 10.0361 21.458 10.0361ZM27.8018 3.60352L27.8428 4.5332C28.4079 3.82227 29.1462 3.4668 30.0576 3.4668C31.6208 3.4668 32.4092 4.34863 32.4229 6.1123V11H31.1582V6.10547C31.1536 5.57227 31.0306 5.17806 30.7891 4.92285C30.5521 4.66764 30.1807 4.54004 29.6748 4.54004C29.2646 4.54004 28.9046 4.64941 28.5947 4.86816C28.2848 5.08691 28.0433 5.37402 27.8701 5.72949V11H26.6055V3.60352H27.8018ZM35.7041 11H34.4395V3.60352H35.7041V11ZM34.3369 1.6416C34.3369 1.43652 34.3984 1.26335 34.5215 1.12207C34.6491 0.980794 34.8359 0.910156 35.082 0.910156C35.3281 0.910156 35.515 0.980794 35.6426 1.12207C35.7702 1.26335 35.834 1.43652 35.834 1.6416C35.834 1.84668 35.7702 2.01758 35.6426 2.1543C35.515 2.29102 35.3281 2.35938 35.082 2.35938C34.8359 2.35938 34.6491 2.29102 34.5215 2.1543C34.3984 2.01758 34.3369 1.84668 34.3369 1.6416ZM38.9238 3.60352L38.958 4.42383C39.5003 3.78581 40.2318 3.4668 41.1523 3.4668C42.1868 3.4668 42.891 3.86328 43.2646 4.65625C43.5107 4.30078 43.8298 4.01367 44.2217 3.79492C44.6182 3.57617 45.0853 3.4668 45.623 3.4668C47.2454 3.4668 48.0703 4.32585 48.0977 6.04395V11H46.833V6.11914C46.833 5.59049 46.7122 5.19629 46.4707 4.93652C46.2292 4.6722 45.8236 4.54004 45.2539 4.54004C44.7845 4.54004 44.3949 4.68132 44.085 4.96387C43.7751 5.24186 43.5951 5.61784 43.5449 6.0918V11H42.2734V6.15332C42.2734 5.0778 41.7471 4.54004 40.6943 4.54004C39.8649 4.54004 39.2975 4.89323 38.9922 5.59961V11H37.7275V3.60352H38.9238ZM54.5781 11C54.5052 10.8542 54.446 10.5944 54.4004 10.2207C53.8125 10.8314 53.1107 11.1367 52.2949 11.1367C51.5658 11.1367 50.9665 10.9316 50.4971 10.5215C50.0322 10.1068 49.7998 9.58268 49.7998 8.94922C49.7998 8.17904 50.0915 7.58203 50.6748 7.1582C51.2627 6.72982 52.0876 6.51562 53.1494 6.51562H54.3799V5.93457C54.3799 5.49251 54.2477 5.1416 53.9834 4.88184C53.7191 4.61751 53.3294 4.48535 52.8145 4.48535C52.3633 4.48535 51.985 4.59928 51.6797 4.82715C51.3743 5.05501 51.2217 5.33073 51.2217 5.6543H49.9502C49.9502 5.28516 50.0801 4.92969 50.3398 4.58789C50.6042 4.24154 50.9596 3.9681 51.4062 3.76758C51.8574 3.56706 52.3519 3.4668 52.8896 3.4668C53.7419 3.4668 54.4095 3.68099 54.8926 4.10938C55.3757 4.5332 55.6263 5.11882 55.6445 5.86621V9.27051C55.6445 9.94954 55.7311 10.4896 55.9043 10.8906V11H54.5781ZM52.4795 10.0361C52.876 10.0361 53.252 9.93359 53.6074 9.72852C53.9629 9.52344 54.2204 9.25684 54.3799 8.92871V7.41113H53.3887C51.8392 7.41113 51.0645 7.86458 51.0645 8.77148C51.0645 9.16797 51.1966 9.47786 51.4609 9.70117C51.7253 9.92448 52.0648 10.0361 52.4795 10.0361ZM59.3428 1.8125V3.60352H60.7236V4.58105H59.3428V9.16797C59.3428 9.46419 59.4043 9.6875 59.5273 9.83789C59.6504 9.98372 59.86 10.0566 60.1562 10.0566C60.3021 10.0566 60.5026 10.0293 60.7578 9.97461V11C60.4251 11.0911 60.1016 11.1367 59.7871 11.1367C59.222 11.1367 58.7959 10.9658 58.5088 10.624C58.2217 10.2822 58.0781 9.79688 58.0781 9.16797V4.58105H56.7314V3.60352H58.0781V1.8125H59.3428ZM63.5811 11H62.3164V3.60352H63.5811V11ZM62.2139 1.6416C62.2139 1.43652 62.2754 1.26335 62.3984 1.12207C62.526 0.980794 62.7129 0.910156 62.959 0.910156C63.2051 0.910156 63.3919 0.980794 63.5195 1.12207C63.6471 1.26335 63.7109 1.43652 63.7109 1.6416C63.7109 1.84668 63.6471 2.01758 63.5195 2.1543C63.3919 2.29102 63.2051 2.35938 62.959 2.35938C62.7129 2.35938 62.526 2.29102 62.3984 2.1543C62.2754 2.01758 62.2139 1.84668 62.2139 1.6416ZM65.2764 7.2334C65.2764 6.50879 65.4176 5.8571 65.7002 5.27832C65.9873 4.69954 66.3838 4.25293 66.8896 3.93848C67.4001 3.62402 67.9811 3.4668 68.6328 3.4668C69.64 3.4668 70.4535 3.81543 71.0732 4.5127C71.6976 5.20996 72.0098 6.13737 72.0098 7.29492V7.38379C72.0098 8.10384 71.8708 8.75098 71.5928 9.3252C71.3193 9.89486 70.9251 10.3392 70.4102 10.6582C69.8997 10.9772 69.3118 11.1367 68.6465 11.1367C67.6439 11.1367 66.8304 10.7881 66.2061 10.0908C65.5863 9.39355 65.2764 8.4707 65.2764 7.32227V7.2334ZM66.5479 7.38379C66.5479 8.2041 66.737 8.86263 67.1152 9.35938C67.498 9.85612 68.0085 10.1045 68.6465 10.1045C69.2891 10.1045 69.7995 9.85384 70.1777 9.35254C70.556 8.84668 70.7451 8.1403 70.7451 7.2334C70.7451 6.4222 70.5514 5.76595 70.1641 5.26465C69.7812 4.75879 69.2708 4.50586 68.6328 4.50586C68.0085 4.50586 67.5049 4.75423 67.1221 5.25098C66.7393 5.74772 66.5479 6.45866 66.5479 7.38379ZM74.792 3.60352L74.833 4.5332C75.3981 3.82227 76.1364 3.4668 77.0479 3.4668C78.611 3.4668 79.3994 4.34863 79.4131 6.1123V11H78.1484V6.10547C78.1439 5.57227 78.0208 5.17806 77.7793 4.92285C77.5423 4.66764 77.1709 4.54004 76.665 4.54004C76.2549 4.54004 75.8949 4.64941 75.585 4.86816C75.2751 5.08691 75.0335 5.37402 74.8604 5.72949V11H73.5957V3.60352H74.792ZM87.2334 9.28418L89.0654 3.60352H90.3574L87.7051 11H86.7412L84.0615 3.60352H85.3535L87.2334 9.28418ZM91.1299 7.2334C91.1299 6.50879 91.2712 5.8571 91.5537 5.27832C91.8408 4.69954 92.2373 4.25293 92.7432 3.93848C93.2536 3.62402 93.8346 3.4668 94.4863 3.4668C95.4935 3.4668 96.307 3.81543 96.9268 4.5127C97.5511 5.20996 97.8633 6.13737 97.8633 7.29492V7.38379C97.8633 8.10384 97.7243 8.75098 97.4463 9.3252C97.1729 9.89486 96.7786 10.3392 96.2637 10.6582C95.7533 10.9772 95.1654 11.1367 94.5 11.1367C93.4974 11.1367 92.6839 10.7881 92.0596 10.0908C91.4398 9.39355 91.1299 8.4707 91.1299 7.32227V7.2334ZM92.4014 7.38379C92.4014 8.2041 92.5905 8.86263 92.9688 9.35938C93.3516 9.85612 93.862 10.1045 94.5 10.1045C95.1426 10.1045 95.653 9.85384 96.0312 9.35254C96.4095 8.84668 96.5986 8.1403 96.5986 7.2334C96.5986 6.4222 96.4049 5.76595 96.0176 5.26465C95.6348 4.75879 95.1243 4.50586 94.4863 4.50586C93.862 4.50586 93.3584 4.75423 92.9756 5.25098C92.5928 5.74772 92.4014 6.45866 92.4014 7.38379ZM100.646 3.60352L100.687 4.5332C101.252 3.82227 101.99 3.4668 102.901 3.4668C104.465 3.4668 105.253 4.34863 105.267 6.1123V11H104.002V6.10547C103.997 5.57227 103.874 5.17806 103.633 4.92285C103.396 4.66764 103.024 4.54004 102.519 4.54004C102.108 4.54004 101.748 4.64941 101.438 4.86816C101.129 5.08691 100.887 5.37402 100.714 5.72949V11H99.4492V3.60352H100.646ZM112.021 11H110.756V0.5H112.021V11ZM115.425 11H114.16V3.60352H115.425V11ZM114.058 1.6416C114.058 1.43652 114.119 1.26335 114.242 1.12207C114.37 0.980794 114.557 0.910156 114.803 0.910156C115.049 0.910156 115.236 0.980794 115.363 1.12207C115.491 1.26335 115.555 1.43652 115.555 1.6416C115.555 1.84668 115.491 2.01758 115.363 2.1543C115.236 2.29102 115.049 2.35938 114.803 2.35938C114.557 2.35938 114.37 2.29102 114.242 2.1543C114.119 2.01758 114.058 1.84668 114.058 1.6416ZM118.651 3.60352L118.692 4.5332C119.257 3.82227 119.996 3.4668 120.907 3.4668C122.47 3.4668 123.259 4.34863 123.272 6.1123V11H122.008V6.10547C122.003 5.57227 121.88 5.17806 121.639 4.92285C121.402 4.66764 121.03 4.54004 120.524 4.54004C120.114 4.54004 119.754 4.64941 119.444 4.86816C119.134 5.08691 118.893 5.37402 118.72 5.72949V11H117.455V3.60352H118.651ZM127.244 7.5752L126.451 8.40234V11H125.187V0.5H126.451V6.85059L127.128 6.03711L129.432 3.60352H130.97L128.092 6.69336L131.305 11H129.821L127.244 7.5752ZM136.582 9.03809C136.582 8.69629 136.452 8.43197 136.192 8.24512C135.937 8.05371 135.488 7.88965 134.846 7.75293C134.208 7.61621 133.7 7.45215 133.321 7.26074C132.948 7.06934 132.67 6.84147 132.487 6.57715C132.31 6.31283 132.221 5.99837 132.221 5.63379C132.221 5.02767 132.476 4.51497 132.986 4.0957C133.501 3.67643 134.158 3.4668 134.955 3.4668C135.794 3.4668 136.473 3.68327 136.992 4.11621C137.516 4.54915 137.778 5.10286 137.778 5.77734H136.507C136.507 5.43099 136.359 5.13249 136.062 4.88184C135.771 4.63118 135.402 4.50586 134.955 4.50586C134.495 4.50586 134.135 4.60612 133.875 4.80664C133.615 5.00716 133.485 5.26921 133.485 5.59277C133.485 5.89811 133.606 6.12826 133.848 6.2832C134.089 6.43815 134.524 6.58626 135.153 6.72754C135.787 6.86882 136.299 7.03743 136.691 7.2334C137.083 7.42936 137.373 7.66634 137.56 7.94434C137.751 8.21777 137.847 8.55273 137.847 8.94922C137.847 9.61003 137.582 10.141 137.054 10.542C136.525 10.9385 135.839 11.1367 134.996 11.1367C134.404 11.1367 133.88 11.0319 133.424 10.8223C132.968 10.6126 132.61 10.321 132.351 9.94727C132.095 9.56901 131.968 9.16113 131.968 8.72363H133.232C133.255 9.14746 133.424 9.4847 133.738 9.73535C134.057 9.98145 134.477 10.1045 134.996 10.1045C135.475 10.1045 135.857 10.0088 136.145 9.81738C136.436 9.62142 136.582 9.36165 136.582 9.03809ZM144.163 3.60352L144.204 4.5332C144.769 3.82227 145.507 3.4668 146.419 3.4668C147.982 3.4668 148.771 4.34863 148.784 6.1123V11H147.52V6.10547C147.515 5.57227 147.392 5.17806 147.15 4.92285C146.913 4.66764 146.542 4.54004 146.036 4.54004C145.626 4.54004 145.266 4.64941 144.956 4.86816C144.646 5.08691 144.405 5.37402 144.231 5.72949V11H142.967V3.60352H144.163ZM155.258 11C155.185 10.8542 155.126 10.5944 155.08 10.2207C154.492 10.8314 153.79 11.1367 152.975 11.1367C152.245 11.1367 151.646 10.9316 151.177 10.5215C150.712 10.1068 150.479 9.58268 150.479 8.94922C150.479 8.17904 150.771 7.58203 151.354 7.1582C151.942 6.72982 152.767 6.51562 153.829 6.51562H155.06V5.93457C155.06 5.49251 154.927 5.1416 154.663 4.88184C154.399 4.61751 154.009 4.48535 153.494 4.48535C153.043 4.48535 152.665 4.59928 152.359 4.82715C152.054 5.05501 151.901 5.33073 151.901 5.6543H150.63C150.63 5.28516 150.76 4.92969 151.02 4.58789C151.284 4.24154 151.639 3.9681 152.086 3.76758C152.537 3.56706 153.032 3.4668 153.569 3.4668C154.422 3.4668 155.089 3.68099 155.572 4.10938C156.055 4.5332 156.306 5.11882 156.324 5.86621V9.27051C156.324 9.94954 156.411 10.4896 156.584 10.8906V11H155.258ZM153.159 10.0361C153.556 10.0361 153.932 9.93359 154.287 9.72852C154.643 9.52344 154.9 9.25684 155.06 8.92871V7.41113H154.068C152.519 7.41113 151.744 7.86458 151.744 8.77148C151.744 9.16797 151.876 9.47786 152.141 9.70117C152.405 9.92448 152.744 10.0361 153.159 10.0361ZM161.273 10.1045C161.725 10.1045 162.119 9.96777 162.456 9.69434C162.793 9.4209 162.98 9.0791 163.017 8.66895H164.213C164.19 9.09277 164.044 9.49609 163.775 9.87891C163.507 10.2617 163.146 10.5671 162.695 10.7949C162.249 11.0228 161.775 11.1367 161.273 11.1367C160.266 11.1367 159.464 10.8018 158.867 10.1318C158.275 9.45736 157.979 8.53678 157.979 7.37012V7.1582C157.979 6.43815 158.111 5.79785 158.375 5.2373C158.639 4.67676 159.018 4.24154 159.51 3.93164C160.007 3.62174 160.592 3.4668 161.267 3.4668C162.096 3.4668 162.784 3.71517 163.331 4.21191C163.882 4.70866 164.176 5.35352 164.213 6.14648H163.017C162.98 5.66797 162.798 5.27604 162.47 4.9707C162.146 4.66081 161.745 4.50586 161.267 4.50586C160.624 4.50586 160.125 4.73828 159.77 5.20312C159.419 5.66341 159.243 6.33105 159.243 7.20605V7.44531C159.243 8.29753 159.419 8.95378 159.77 9.41406C160.12 9.87435 160.622 10.1045 161.273 10.1045ZM166.899 4.49902C167.46 3.81087 168.189 3.4668 169.087 3.4668C170.65 3.4668 171.438 4.34863 171.452 6.1123V11H170.188V6.10547C170.183 5.57227 170.06 5.17806 169.818 4.92285C169.581 4.66764 169.21 4.54004 168.704 4.54004C168.294 4.54004 167.934 4.64941 167.624 4.86816C167.314 5.08691 167.073 5.37402 166.899 5.72949V11H165.635V0.5H166.899V4.49902ZM180.394 4.73828C180.202 4.70638 179.995 4.69043 179.771 4.69043C178.942 4.69043 178.379 5.04362 178.083 5.75V11H176.818V3.60352H178.049L178.069 4.45801C178.484 3.7972 179.072 3.4668 179.833 3.4668C180.079 3.4668 180.266 3.4987 180.394 3.5625V4.73828ZM184.495 11.1367C183.493 11.1367 182.677 10.8086 182.048 10.1523C181.419 9.49154 181.104 8.6097 181.104 7.50684V7.27441C181.104 6.54069 181.243 5.88672 181.521 5.3125C181.804 4.73372 182.196 4.28255 182.697 3.95898C183.203 3.63086 183.75 3.4668 184.338 3.4668C185.299 3.4668 186.047 3.78353 186.58 4.41699C187.113 5.05046 187.38 5.95736 187.38 7.1377V7.66406H182.369C182.387 8.39323 182.599 8.9834 183.005 9.43457C183.415 9.88118 183.935 10.1045 184.563 10.1045C185.01 10.1045 185.388 10.0133 185.698 9.83105C186.008 9.64876 186.279 9.40723 186.512 9.10645L187.284 9.70801C186.664 10.6605 185.735 11.1367 184.495 11.1367ZM184.338 4.50586C183.827 4.50586 183.399 4.69271 183.053 5.06641C182.706 5.43555 182.492 5.95508 182.41 6.625H186.115V6.5293C186.079 5.88672 185.906 5.38997 185.596 5.03906C185.286 4.68359 184.867 4.50586 184.338 4.50586ZM191.816 10.1045C192.268 10.1045 192.662 9.96777 192.999 9.69434C193.336 9.4209 193.523 9.0791 193.56 8.66895H194.756C194.733 9.09277 194.587 9.49609 194.318 9.87891C194.049 10.2617 193.689 10.5671 193.238 10.7949C192.792 11.0228 192.318 11.1367 191.816 11.1367C190.809 11.1367 190.007 10.8018 189.41 10.1318C188.818 9.45736 188.521 8.53678 188.521 7.37012V7.1582C188.521 6.43815 188.654 5.79785 188.918 5.2373C189.182 4.67676 189.561 4.24154 190.053 3.93164C190.549 3.62174 191.135 3.4668 191.81 3.4668C192.639 3.4668 193.327 3.71517 193.874 4.21191C194.425 4.70866 194.719 5.35352 194.756 6.14648H193.56C193.523 5.66797 193.341 5.27604 193.013 4.9707C192.689 4.66081 192.288 4.50586 191.81 4.50586C191.167 4.50586 190.668 4.73828 190.312 5.20312C189.962 5.66341 189.786 6.33105 189.786 7.20605V7.44531C189.786 8.29753 189.962 8.95378 190.312 9.41406C190.663 9.87435 191.165 10.1045 191.816 10.1045ZM197.442 4.49902C198.003 3.81087 198.732 3.4668 199.63 3.4668C201.193 3.4668 201.981 4.34863 201.995 6.1123V11H200.73V6.10547C200.726 5.57227 200.603 5.17806 200.361 4.92285C200.124 4.66764 199.753 4.54004 199.247 4.54004C198.837 4.54004 198.477 4.64941 198.167 4.86816C197.857 5.08691 197.616 5.37402 197.442 5.72949V11H196.178V0.5H197.442V4.49902ZM205.604 1.8125V3.60352H206.985V4.58105H205.604V9.16797C205.604 9.46419 205.666 9.6875 205.789 9.83789C205.912 9.98372 206.122 10.0566 206.418 10.0566C206.564 10.0566 206.764 10.0293 207.02 9.97461V11C206.687 11.0911 206.363 11.1367 206.049 11.1367C205.484 11.1367 205.058 10.9658 204.771 10.624C204.483 10.2822 204.34 9.79688 204.34 9.16797V4.58105H202.993V3.60352H204.34V1.8125H205.604ZM212.775 9.03809C212.775 8.69629 212.646 8.43197 212.386 8.24512C212.131 8.05371 211.682 7.88965 211.039 7.75293C210.401 7.61621 209.893 7.45215 209.515 7.26074C209.141 7.06934 208.863 6.84147 208.681 6.57715C208.503 6.31283 208.414 5.99837 208.414 5.63379C208.414 5.02767 208.669 4.51497 209.18 4.0957C209.695 3.67643 210.351 3.4668 211.148 3.4668C211.987 3.4668 212.666 3.68327 213.186 4.11621C213.71 4.54915 213.972 5.10286 213.972 5.77734H212.7C212.7 5.43099 212.552 5.13249 212.256 4.88184C211.964 4.63118 211.595 4.50586 211.148 4.50586C210.688 4.50586 210.328 4.60612 210.068 4.80664C209.809 5.00716 209.679 5.26921 209.679 5.59277C209.679 5.89811 209.799 6.12826 210.041 6.2832C210.283 6.43815 210.718 6.58626 211.347 6.72754C211.98 6.86882 212.493 7.03743 212.885 7.2334C213.277 7.42936 213.566 7.66634 213.753 7.94434C213.944 8.21777 214.04 8.55273 214.04 8.94922C214.04 9.61003 213.776 10.141 213.247 10.542C212.718 10.9385 212.033 11.1367 211.189 11.1367C210.597 11.1367 210.073 11.0319 209.617 10.8223C209.161 10.6126 208.804 10.321 208.544 9.94727C208.289 9.56901 208.161 9.16113 208.161 8.72363H209.426C209.449 9.14746 209.617 9.4847 209.932 9.73535C210.251 9.98145 210.67 10.1045 211.189 10.1045C211.668 10.1045 212.051 10.0088 212.338 9.81738C212.63 9.62142 212.775 9.36165 212.775 9.03809Z" fill="black"/>
</svg>
