<svg width="35" height="12" viewBox="0 0 35 12" fill="none" xmlns="http://www.w3.org/2000/svg">
<path d="M2.22168 4.49902C2.78223 3.81087 3.51139 3.4668 4.40918 3.4668C5.97233 3.4668 6.76074 4.34863 6.77441 6.1123V11H5.50977V6.10547C5.50521 5.57227 5.38216 5.17806 5.14062 4.92285C4.90365 4.66764 4.53223 4.54004 4.02637 4.54004C3.61621 4.54004 3.25618 4.64941 2.94629 4.86816C2.63639 5.08691 2.39486 5.37402 2.22168 5.72949V11H0.957031V0.5H2.22168V4.49902ZM8.33301 7.2334C8.33301 6.50879 8.47428 5.8571 8.75684 5.27832C9.04395 4.69954 9.44043 4.25293 9.94629 3.93848C10.4567 3.62402 11.0378 3.4668 11.6895 3.4668C12.6966 3.4668 13.5101 3.81543 14.1299 4.5127C14.7542 5.20996 15.0664 6.13737 15.0664 7.29492V7.38379C15.0664 8.10384 14.9274 8.75098 14.6494 9.3252C14.376 9.89486 13.9818 10.3392 13.4668 10.6582C12.9564 10.9772 12.3685 11.1367 11.7031 11.1367C10.7005 11.1367 9.88704 10.7881 9.2627 10.0908C8.6429 9.39355 8.33301 8.4707 8.33301 7.32227V7.2334ZM9.60449 7.38379C9.60449 8.2041 9.79362 8.86263 10.1719 9.35938C10.5547 9.85612 11.0651 10.1045 11.7031 10.1045C12.3457 10.1045 12.8561 9.85384 13.2344 9.35254C13.6126 8.84668 13.8018 8.1403 13.8018 7.2334C13.8018 6.4222 13.6081 5.76595 13.2207 5.26465C12.8379 4.75879 12.3275 4.50586 11.6895 4.50586C11.0651 4.50586 10.5615 4.75423 10.1787 5.25098C9.7959 5.74772 9.60449 6.45866 9.60449 7.38379ZM18.9834 9.28418L20.8154 3.60352H22.1074L19.4551 11H18.4912L15.8115 3.60352H17.1035L18.9834 9.28418ZM26.2979 11.1367C25.2952 11.1367 24.4795 10.8086 23.8506 10.1523C23.2217 9.49154 22.9072 8.6097 22.9072 7.50684V7.27441C22.9072 6.54069 23.0462 5.88672 23.3242 5.3125C23.6068 4.73372 23.9987 4.28255 24.5 3.95898C25.0059 3.63086 25.5527 3.4668 26.1406 3.4668C27.1022 3.4668 27.8496 3.78353 28.3828 4.41699C28.916 5.05046 29.1826 5.95736 29.1826 7.1377V7.66406H24.1719C24.1901 8.39323 24.402 8.9834 24.8076 9.43457C25.2178 9.88118 25.7373 10.1045 26.3662 10.1045C26.8128 10.1045 27.1911 10.0133 27.501 9.83105C27.8109 9.64876 28.082 9.40723 28.3145 9.10645L29.0869 9.70801C28.4671 10.6605 27.5374 11.1367 26.2979 11.1367ZM26.1406 4.50586C25.6302 4.50586 25.2018 4.69271 24.8555 5.06641C24.5091 5.43555 24.2949 5.95508 24.2129 6.625H27.918V6.5293C27.8815 5.88672 27.7083 5.38997 27.3984 5.03906C27.0885 4.68359 26.6693 4.50586 26.1406 4.50586ZM34.2275 4.73828C34.0361 4.70638 33.8288 4.69043 33.6055 4.69043C32.776 4.69043 32.2132 5.04362 31.917 5.75V11H30.6523V3.60352H31.8828L31.9033 4.45801C32.318 3.7972 32.9059 3.4668 33.667 3.4668C33.9131 3.4668 34.0999 3.4987 34.2275 3.5625V4.73828Z" fill="black"/>
</svg>
