<svg width="43" height="12" viewBox="0 0 43 12" fill="none" xmlns="http://www.w3.org/2000/svg">
<path d="M2.15332 3.60352L2.19434 4.5332C2.75944 3.82227 3.49772 3.4668 4.40918 3.4668C5.97233 3.4668 6.76074 4.34863 6.77441 6.1123V11H5.50977V6.10547C5.50521 5.57227 5.38216 5.17806 5.14062 4.92285C4.90365 4.66764 4.53223 4.54004 4.02637 4.54004C3.61621 4.54004 3.25618 4.64941 2.94629 4.86816C2.63639 5.08691 2.39486 5.37402 2.22168 5.72949V11H0.957031V3.60352H2.15332ZM8.34668 7.2334C8.34668 6.50879 8.48796 5.8571 8.77051 5.27832C9.05762 4.69954 9.4541 4.25293 9.95996 3.93848C10.4704 3.62402 11.0514 3.4668 11.7031 3.4668C12.7103 3.4668 13.5238 3.81543 14.1436 4.5127C14.7679 5.20996 15.0801 6.13737 15.0801 7.29492V7.38379C15.0801 8.10384 14.9411 8.75098 14.6631 9.3252C14.3896 9.89486 13.9954 10.3392 13.4805 10.6582C12.9701 10.9772 12.3822 11.1367 11.7168 11.1367C10.7142 11.1367 9.90072 10.7881 9.27637 10.0908C8.65658 9.39355 8.34668 8.4707 8.34668 7.32227V7.2334ZM9.61816 7.38379C9.61816 8.2041 9.80729 8.86263 10.1855 9.35938C10.5684 9.85612 11.0788 10.1045 11.7168 10.1045C12.3594 10.1045 12.8698 9.85384 13.248 9.35254C13.6263 8.84668 13.8154 8.1403 13.8154 7.2334C13.8154 6.4222 13.6217 5.76595 13.2344 5.26465C12.8516 4.75879 12.3411 4.50586 11.7031 4.50586C11.0788 4.50586 10.5752 4.75423 10.1924 5.25098C9.80957 5.74772 9.61816 6.45866 9.61816 7.38379ZM20.2412 4.73828C20.0498 4.70638 19.8424 4.69043 19.6191 4.69043C18.7897 4.69043 18.2269 5.04362 17.9307 5.75V11H16.666V3.60352H17.8965L17.917 4.45801C18.3317 3.7972 18.9196 3.4668 19.6807 3.4668C19.9268 3.4668 20.1136 3.4987 20.2412 3.5625V4.73828ZM22.5996 3.60352L22.6338 4.42383C23.1761 3.78581 23.9076 3.4668 24.8281 3.4668C25.8626 3.4668 26.5667 3.86328 26.9404 4.65625C27.1865 4.30078 27.5055 4.01367 27.8975 3.79492C28.2939 3.57617 28.7611 3.4668 29.2988 3.4668C30.9212 3.4668 31.7461 4.32585 31.7734 6.04395V11H30.5088V6.11914C30.5088 5.59049 30.388 5.19629 30.1465 4.93652C29.9049 4.6722 29.4993 4.54004 28.9297 4.54004C28.4603 4.54004 28.0706 4.68132 27.7607 4.96387C27.4508 5.24186 27.2708 5.61784 27.2207 6.0918V11H25.9492V6.15332C25.9492 5.0778 25.4229 4.54004 24.3701 4.54004C23.5407 4.54004 22.9733 4.89323 22.668 5.59961V11H21.4033V3.60352H22.5996ZM38.2539 11C38.181 10.8542 38.1217 10.5944 38.0762 10.2207C37.4883 10.8314 36.7865 11.1367 35.9707 11.1367C35.2415 11.1367 34.6423 10.9316 34.1729 10.5215C33.708 10.1068 33.4756 9.58268 33.4756 8.94922C33.4756 8.17904 33.7673 7.58203 34.3506 7.1582C34.9385 6.72982 35.7633 6.51562 36.8252 6.51562H38.0557V5.93457C38.0557 5.49251 37.9235 5.1416 37.6592 4.88184C37.3949 4.61751 37.0052 4.48535 36.4902 4.48535C36.0391 4.48535 35.6608 4.59928 35.3555 4.82715C35.0501 5.05501 34.8975 5.33073 34.8975 5.6543H33.626C33.626 5.28516 33.7559 4.92969 34.0156 4.58789C34.2799 4.24154 34.6354 3.9681 35.082 3.76758C35.5332 3.56706 36.0277 3.4668 36.5654 3.4668C37.4176 3.4668 38.0853 3.68099 38.5684 4.10938C39.0514 4.5332 39.3021 5.11882 39.3203 5.86621V9.27051C39.3203 9.94954 39.4069 10.4896 39.5801 10.8906V11H38.2539ZM36.1553 10.0361C36.5518 10.0361 36.9277 9.93359 37.2832 9.72852C37.6387 9.52344 37.8962 9.25684 38.0557 8.92871V7.41113H37.0645C35.515 7.41113 34.7402 7.86458 34.7402 8.77148C34.7402 9.16797 34.8724 9.47786 35.1367 9.70117C35.401 9.92448 35.7406 10.0361 36.1553 10.0361ZM42.6768 11H41.4121V0.5H42.6768V11Z" fill="black"/>
</svg>
